<svg width="696" height="655" viewBox="0 0 696 655" fill="none" xmlns="http://www.w3.org/2000/svg">
<rect width="696" height="655" fill="white"/>
<rect x="256.184" y="211.785" width="83.8074" height="209.903" rx="41.9037" fill="#A5213A"/>
<rect x="157" y="278.676" width="83.8074" height="143.011" rx="41.9037" fill="#A5213A"/>
<rect x="355.375" y="144.893" width="83.8074" height="277.564" rx="41.9037" fill="#A5213A"/>
<rect x="454.559" y="78" width="83.8074" height="499" rx="41.9037" fill="#A5213A"/>
<path d="M174.511 391.508V334.651H202.29C209.437 334.651 214.798 336.005 218.372 338.712C222 341.42 223.814 344.994 223.814 349.434C223.814 352.412 223.083 355.011 221.621 357.231C220.159 359.397 218.155 361.076 215.61 362.267C213.065 363.458 210.141 364.054 206.838 364.054L208.382 360.724C211.955 360.724 215.123 361.32 217.885 362.511C220.646 363.648 222.785 365.354 224.301 367.628C225.872 369.902 226.657 372.691 226.657 375.994C226.657 380.867 224.735 384.685 220.89 387.447C217.045 390.154 211.387 391.508 203.914 391.508H174.511ZM187.588 381.598H202.94C206.351 381.598 208.923 381.057 210.656 379.974C212.443 378.837 213.336 377.05 213.336 374.613C213.336 372.231 212.443 370.471 210.656 369.334C208.923 368.142 206.351 367.547 202.94 367.547H186.613V357.962H200.665C203.86 357.962 206.297 357.421 207.975 356.338C209.708 355.201 210.575 353.495 210.575 351.221C210.575 349.001 209.708 347.349 207.975 346.266C206.297 345.129 203.86 344.56 200.665 344.56H187.588V381.598Z" fill="white"/>
<path d="M304.685 345.536V381.275H314.513V391.834H281.617V381.275H291.526V345.536H281.617V334.977H314.513V345.536H304.685Z" fill="white"/>
<path d="M390.804 391.508V345.373H372.61V334.651H422.157V345.373H403.963V391.508H390.804Z" fill="white"/>
<path d="M467.107 391.508L491.555 357.8V367.384L468.163 334.651H483.108L499.272 357.475L493.017 357.556L508.937 334.651H523.233L500.003 366.816V357.394L524.614 391.508H509.425L492.693 367.384H498.703L482.215 391.508H467.107Z" fill="white"/>
</svg>
